<svg width="21" height="21" viewBox="0 0 21 21" fill="none" xmlns="http://www.w3.org/2000/svg">
<path d="M10.5 0C16.2991 0 21 4.70085 21 10.5C21 16.2991 16.2991 21 10.5 21C4.70085 21 0 16.2991 0 10.5C0 4.70085 4.70085 0 10.5 0ZM10.5 5.25C10.3097 5.25001 10.1258 5.31892 9.98242 5.44401C9.839 5.56909 9.74573 5.74187 9.71985 5.9304L9.7125 6.0375V9.7125H6.0375C5.83798 9.71256 5.64591 9.78836 5.50012 9.92457C5.35433 10.0608 5.26567 10.2473 5.25207 10.4463C5.23847 10.6454 5.30094 10.8422 5.42685 10.997C5.55277 11.1517 5.73274 11.253 5.9304 11.2801L6.0375 11.2875H9.7125V14.9625C9.71256 15.162 9.78836 15.3541 9.92457 15.4999C10.0608 15.6457 10.2473 15.7343 10.4463 15.7479C10.6454 15.7615 10.8422 15.6991 10.997 15.5731C11.1517 15.4472 11.253 15.2673 11.2801 15.0696L11.2875 14.9625V11.2875H14.9625C15.162 11.2874 15.3541 11.2116 15.4999 11.0754C15.6457 10.9392 15.7343 10.7527 15.7479 10.5537C15.7615 10.3546 15.6991 10.1578 15.5731 10.003C15.4472 9.84826 15.2673 9.74705 15.0696 9.71985L14.9625 9.7125H11.2875V6.0375C11.2875 5.82864 11.2045 5.62834 11.0568 5.48065C10.9092 5.33297 10.7089 5.25 10.5 5.25Z" fill="url(#paint0_linear_1970_2604)"/>
<defs>
<linearGradient id="paint0_linear_1970_2604" x1="-0.375" y1="12.7105" x2="21.1163" y2="13.0238" gradientUnits="userSpaceOnUse">
<stop stop-color="#6554DF"/>
<stop offset="1" stop-color="#BB58DB"/>
</linearGradient>
</defs>
</svg>
